<?xml version="1.0" encoding="utf-8"?><!-- Uploaded to: SVG Repo, www.svgrepo.com, Generator: SVG Repo Mixer Tools -->
<svg width="800px" height="800px" viewBox="0 0 24 24" fill="none" xmlns="http://www.w3.org/2000/svg">
<path d="M3 17V12C3 7.02944 7.02944 3 12 3C16.9706 3 21 7.02944 21 12V17M8.28571 21C7.02335 21 6 19.9767 6 18.7143V15.2857C6 14.0233 7.02335 13 8.28571 13C9.23249 13 10 13.7675 10 14.7143V19.2857C10 20.2325 9.23249 21 8.28571 21ZM15.7143 21C16.9767 21 18 19.9767 18 18.7143V15.2857C18 14.0233 16.9767 13 15.7143 13C14.7675 13 14 13.7675 14 14.7143V19.2857C14 20.2325 14.7675 21 15.7143 21Z" stroke="#000000" stroke-width="2" stroke-linecap="round" stroke-linejoin="round"/>
</svg>